<?xml version="1.0" encoding="UTF-8"?>
<svg width="127px" height="128px" viewBox="0 0 127 128" version="1.1" xmlns="http://www.w3.org/2000/svg" xmlns:xlink="http://www.w3.org/1999/xlink">
    <title>avatar_default</title>
    <g id="Symbols" stroke="none" stroke-width="1" fill="none" fill-rule="evenodd">
        <g id="avatar-icon" transform="translate(-2.000000, -1.000000)" fill="#FFFFFF">
            <g transform="translate(2.000000, 1.000000)" id="avatar_default">
                <g transform="translate(0.036397, 0.487551)">
                    <path d="M10.5635983,63.3815899 C10.5635983,92.5522697 34.2113794,116.199582 63.3826378,116.199582 C92.5538963,116.199582 116.199582,92.5522697 116.199582,63.3815899 C116.199582,34.2109102 92.5538963,10.5635983 63.3826378,10.5635983 C34.2113794,10.5635983 10.5635983,34.2109102 10.5635983,63.3815899 L10.5635983,63.3815899 L10.5635983,63.3815899 Z M33.0412581,100.954751 C35.9476885,99.2583176 47.8669936,96.9411873 50.6580886,95.1839426 C53.7469587,93.2400694 52.7550812,82.6022392 52.7550812,82.6022392 L52.0684494,81.8429474 C51.2895298,80.9816043 50.353314,79.387859 49.9817563,78.2961593 L48.5925523,74.2144362 L45.4234728,65.4943102 C45.4234728,65.4943102 43.3107531,61.8234719 43.3107531,59.1561506 C43.3107531,56.4888296 44.367113,54.9307113 44.367113,54.9307113 C44.367113,54.9307113 43.3107531,47.4128918 43.3107531,42.2543933 C43.3107531,32.7471548 55.9870711,26.4089958 63.3815899,26.4089958 C70.7761088,26.4089958 83.4524267,32.7471548 83.4524267,42.2543933 C83.4524267,47.4107947 82.3960669,54.9307113 82.3960669,54.9307113 C82.3960669,54.9307113 83.4524267,56.4888296 83.4524267,59.1561506 C83.4524267,61.8234719 81.3397071,65.4943096 81.3397071,65.4943096 L78.1706276,74.2144362 L76.7496905,78.2961588 C76.3676305,79.3936527 75.4125418,80.991691 74.6369708,81.8429466 L73.9451883,82.6022381 C73.9451883,82.6022381 74.0395529,93.2400694 77.1305188,95.1839426 C79.88387,96.9181208 91.5368563,99.199603 94.6299201,100.887648 C94.632016,101.093149 81.323456,111.974142 63.3815899,111.974142 C45.4355301,111.974142 33.2236956,101.135089 33.0412581,100.954751 L33.0412581,100.954751 L33.0412581,100.954751 Z" id="contacts"></path>
                </g>
            </g>
        </g>
    </g>
</svg>