<?xml version="1.0" encoding="UTF-8"?>
<svg width="12px" height="25px" viewBox="0 0 12 25" version="1.1" xmlns="http://www.w3.org/2000/svg" xmlns:xlink="http://www.w3.org/1999/xlink">
    <title>fb_btn</title>
    <g id="Milestone-1---360x640dp-Android-Mobile" stroke="none" stroke-width="1" fill="none" fill-rule="evenodd">
        <g id="Login" transform="translate(-100.000000, -187.000000)" fill="#FFFFFF">
            <g id="Login-with-Facebook" transform="translate(15.878906, 173.917969)">
                <g id="facebook" transform="translate(84.871358, 13.000000)">
                    <path d="M2.92946699,13.1079467 L0.131561542,13.1079467 L0.131561542,9.01617636 L2.92946699,9.01617636 L2.92946699,5.52143529 C2.92946699,2.7751888 4.58222339,0.253490691 8.39040935,0.253490691 C9.93235151,0.253490691 11.0727719,0.412242197 11.0727719,0.412242197 L10.9827225,4.23309728 C10.9827225,4.23309728 9.81989253,4.22095356 8.55097692,4.22095356 C7.17762044,4.22095356 6.95763669,4.90056014 6.95763669,6.02882188 C6.95763669,6.92061233 6.95763669,4.12799892 6.95763669,9.01639715 L11.091892,9.01639715 L10.9119988,13.1081675 L6.95763669,13.1081675 L6.95763669,24.4722583 L2.92946699,24.4722583 L2.92946699,13.1079467 Z" id="fb_btn"></path>
                </g>
            </g>
        </g>
    </g>
</svg>