<?xml version="1.0" encoding="UTF-8"?>
<svg width="270px" height="41px" viewBox="0 0 270 41" version="1.1" xmlns="http://www.w3.org/2000/svg" xmlns:xlink="http://www.w3.org/1999/xlink">
    <title>ic_logo_welcome</title>
    <defs>
        <linearGradient x1="98.7654667%" y1="49.8036183%" x2="3.28844969%" y2="50.00522%" id="linearGradient-1">
            <stop stop-color="#FFFFFF" offset="74.44%"></stop>
            <stop stop-color="#B2347B" offset="85.5%"></stop>
            <stop stop-color="#E83A8A" offset="100%"></stop>
        </linearGradient>
        <linearGradient x1="7.55560983%" y1="20.2561966%" x2="81.9770986%" y2="71.9597407%" id="linearGradient-2">
            <stop stop-color="#54FFE4" offset="0%"></stop>
            <stop stop-color="#66C3C9" offset="57.13%"></stop>
            <stop stop-color="#8D3C8B" offset="100%"></stop>
        </linearGradient>
        <linearGradient x1="-7.87971085%" y1="27.90981%" x2="94.3535067%" y2="67.2634701%" id="linearGradient-3">
            <stop stop-color="#54FFE4" offset="0%"></stop>
            <stop stop-color="#66C3C9" offset="57.13%"></stop>
            <stop stop-color="#8D3C8B" offset="100%"></stop>
        </linearGradient>
        <linearGradient x1="12.5977507%" y1="37.0288416%" x2="81.076471%" y2="61.5702478%" id="linearGradient-4">
            <stop stop-color="#54FFE4" offset="0%"></stop>
            <stop stop-color="#66C3C9" offset="57.13%"></stop>
            <stop stop-color="#8D3C8B" offset="100%"></stop>
        </linearGradient>
        <linearGradient x1="95.2067427%" y1="108.652636%" x2="33.1799207%" y2="25.5318733%" id="linearGradient-5">
            <stop stop-color="#2A31D2" offset="0%"></stop>
            <stop stop-color="#E9558B" offset="100%"></stop>
        </linearGradient>
        <linearGradient x1="52.1723205%" y1="61.1982206%" x2="43.4518855%" y2="16.2557843%" id="linearGradient-6">
            <stop stop-color="#4731D2" offset="0%"></stop>
            <stop stop-color="#C83A8A" offset="100%"></stop>
        </linearGradient>
        <linearGradient x1="15.5229962%" y1="64.6003362%" x2="71.1422056%" y2="14.5762719%" id="linearGradient-7">
            <stop stop-color="#54FFE4" offset="0%"></stop>
            <stop stop-color="#66C3C9" offset="32.47%"></stop>
        </linearGradient>
        <linearGradient x1="-2.08526567%" y1="45.0726795%" x2="90.7536545%" y2="53.8666991%" id="linearGradient-8">
            <stop stop-color="#54FFE4" offset="23.49%"></stop>
            <stop stop-color="#66C3C9" offset="57.13%"></stop>
            <stop stop-color="#8D3C8B" offset="100%"></stop>
        </linearGradient>
        <linearGradient x1="6.19962766%" y1="46.3653126%" x2="78.635238%" y2="52.4977353%" id="linearGradient-9">
            <stop stop-color="#54FFE4" offset="0%"></stop>
            <stop stop-color="#66C3C9" offset="57.13%"></stop>
            <stop stop-color="#8D3C8B" offset="100%"></stop>
        </linearGradient>
        <linearGradient x1="-4.61271134%" y1="46.4637497%" x2="88.1898317%" y2="52.6587033%" id="linearGradient-10">
            <stop stop-color="#54FFE4" offset="0%"></stop>
            <stop stop-color="#66C3C9" offset="57.13%"></stop>
            <stop stop-color="#8D3C8B" offset="100%"></stop>
        </linearGradient>
        <linearGradient x1="-1.34766797%" y1="47.8100301%" x2="97.9801091%" y2="52.2817996%" id="linearGradient-11">
            <stop stop-color="#54FFE4" offset="0%"></stop>
            <stop stop-color="#66C3C9" offset="57.13%"></stop>
            <stop stop-color="#8D3C8B" offset="100%"></stop>
        </linearGradient>
        <linearGradient x1="1.04031442%" y1="48.5483259%" x2="102.007618%" y2="51.7504491%" id="linearGradient-12">
            <stop stop-color="#54FFE4" offset="0%"></stop>
            <stop stop-color="#66C3C9" offset="57.13%"></stop>
            <stop stop-color="#8D3C8B" offset="100%"></stop>
        </linearGradient>
        <linearGradient x1="-22.8831105%" y1="54.6903863%" x2="109.041336%" y2="45.0592145%" id="linearGradient-13">
            <stop stop-color="#54FFE4" offset="0%"></stop>
            <stop stop-color="#66C3C9" offset="57.13%"></stop>
            <stop stop-color="#8D3C8B" offset="100%"></stop>
        </linearGradient>
        <linearGradient x1="-2.68073369%" y1="53.7388728%" x2="102.620955%" y2="46.2568462%" id="linearGradient-14">
            <stop stop-color="#4731D2" offset="0%"></stop>
            <stop stop-color="#8D3C8B" offset="100%"></stop>
        </linearGradient>
        <linearGradient x1="8.92787874%" y1="100.755355%" x2="85.289432%" y2="2.07510818%" id="linearGradient-15">
            <stop stop-color="#54FFE4" offset="0%"></stop>
            <stop stop-color="#66C3C9" offset="57.13%"></stop>
        </linearGradient>
        <linearGradient x1="48.2199408%" y1="99.4537805%" x2="51.5168143%" y2="8.0891325%" id="linearGradient-16">
            <stop stop-color="#1B01D2" offset="0%"></stop>
            <stop stop-color="#C83A8A" offset="100%"></stop>
        </linearGradient>
        <linearGradient x1="54.9567332%" y1="98.6992893%" x2="44.2350815%" y2="-6.47662103%" id="linearGradient-17">
            <stop stop-color="#1B01D2" offset="0%"></stop>
            <stop stop-color="#FFFFFF" offset="100%"></stop>
        </linearGradient>
        <linearGradient x1="56.5194719%" y1="-4.13462507%" x2="43.4527413%" y2="104.323746%" id="linearGradient-18">
            <stop stop-color="#666666" offset="0%"></stop>
            <stop stop-color="#000000" offset="100%"></stop>
        </linearGradient>
        <linearGradient x1="48.0241403%" y1="108.650131%" x2="51.6348632%" y2="0.29114136%" id="linearGradient-19">
            <stop stop-color="#FFFFFF" offset="0%"></stop>
            <stop stop-color="#A73A8A" offset="100%"></stop>
        </linearGradient>
        <linearGradient x1="98.7401808%" y1="42.9311781%" x2="40.9515557%" y2="48.6976896%" id="linearGradient-20">
            <stop stop-color="#2A31D2" offset="0%"></stop>
            <stop stop-color="#E9708B" offset="57.81%"></stop>
            <stop stop-color="#E9708B" offset="86.52%"></stop>
        </linearGradient>
        <linearGradient x1="21.7837613%" y1="30.9428365%" x2="67.1698618%" y2="81.7598689%" id="linearGradient-21">
            <stop stop-color="#9535E1" offset="0%"></stop>
            <stop stop-color="#E9708B" offset="58.44%"></stop>
            <stop stop-color="#E9708B" offset="86.52%"></stop>
        </linearGradient>
        <linearGradient x1="65.7046394%" y1="58.6069184%" x2="36.2004725%" y2="46.7610488%" id="linearGradient-22">
            <stop stop-color="#2A31D2" offset="0%"></stop>
            <stop stop-color="#E9708B" offset="60.11%"></stop>
            <stop stop-color="#E9708B" offset="100%"></stop>
        </linearGradient>
    </defs>
    <g id="Milestone-1---360x640dp-Android-Mobile" stroke="none" stroke-width="1" fill="none" fill-rule="evenodd">
        <g id="Welcome-screen-(with-text)" transform="translate(-45.000000, -440.000000)">
            <g id="Group" transform="translate(43.302240, 438.417969)">
                <g id="Group" transform="translate(1.952825, 1.832845)">
                    <g transform="translate(42.898387, 3.097134)" id="Shape">
                        <path d="M5.51354275,3.18798335 L5.51354275,16.6687757 C5.51354275,18.4300126 6.03767304,18.559576 7.74865873,18.8445124 C7.94170147,18.8703218 8.05224732,19.0515042 8.05224732,19.4660039 C8.05224732,19.6993214 7.94170147,19.9326388 7.55616596,19.9326388 C7.14203153,19.9326388 5.79018235,19.5955674 4.18974251,19.5955674 C2.58820271,19.5955674 1.2369035,19.9326388 0.822769072,19.9326388 C0.436683585,19.9326388 0.32613774,19.6993214 0.32613774,19.4660039 C0.32613774,19.0515042 0.436683585,18.8703218 0.630276308,18.8445124 C2.34126199,18.559576 2.86539229,18.4300126 2.86539229,16.6687757 L2.86539229,3.18798335 L5.51354275,3.18798335 Z" fill="#FFFFFF"></path>
                        <path d="M14.8395422,13.690365 C14.8395422,16.3322204 16.3019372,18.2230208 18.9511876,18.2230208 C21.1863036,18.2230208 22.6486986,16.5134028 22.8972893,16.5134028 C23.0628331,16.5134028 23.5600144,16.9542282 23.5600144,17.2644578 C23.5600144,17.3418861 21.4073953,19.9326388 18.0954198,19.9326388 C14.7014974,19.9326388 12.3552856,18.0155128 12.3552856,14.4419363 C12.3552856,10.3759154 15.031485,7.75935327 18.5645522,7.75935327 C22.2626131,7.75935327 23.4208696,11.0227002 23.4208696,11.7742714 C23.4208696,12.1887712 23.3383727,12.2140645 22.9236883,12.292009 L14.8395422,13.690365 Z M20.4966295,11.5667634 C20.7446702,11.5146284 20.7727192,11.2555015 20.7727192,10.9968908 C20.7727192,9.85714542 19.6683607,8.84696352 18.4270573,8.84696352 C16.1644424,8.84696352 15.0881328,10.8151922 14.8395422,12.6538575 L20.4966295,11.5667634 Z" fill="#FFFFFF"></path>
                        <path d="M31.2025271,7.75935327 C32.4163315,7.75935327 34.4859037,7.86362345 34.5684006,8.01796396 C34.5964495,8.06958287 34.6508975,8.1996625 34.6508975,8.32922594 C34.6508975,8.69159063 34.8164413,10.2974547 34.8164413,10.7119544 C34.8164413,11.0485097 34.5128527,11.3076366 33.9887224,11.3076366 C33.2990483,11.3076366 33.2435004,10.1420818 33.1604535,9.62434418 C33.1060055,9.2098444 32.3613335,9.0028526 31.3130729,9.0028526 C28.9399121,9.0028526 28.4416309,9.98722506 28.4416309,10.789899 C28.4416309,13.1721113 35.3691705,11.6700012 35.3691705,16.202657 C35.3691705,17.601013 34.2928609,19.9326388 30.3742582,19.9326388 C27.7250078,19.9326388 26.5106535,19.6993214 26.4556555,19.2848216 C26.3731586,18.5074409 26.1520669,16.8762836 26.1520669,16.64245 C26.1520669,16.3322204 26.5101035,15.9956652 26.8703399,15.9956652 C27.4214192,15.9956652 27.588063,16.2547921 27.6419609,16.4881095 C27.7244578,16.9800376 27.8625026,17.6273387 27.9735985,17.9902195 C28.0285964,18.1455924 29.0488081,18.6896557 30.3462093,18.6896557 C32.1957898,18.6896557 33.0499077,17.6273387 33.0499077,16.6429662 C33.0499077,13.6908812 26.2901118,15.4521182 26.2901118,11.1785893 C26.2906617,9.75390762 27.2833744,7.75935327 31.2025271,7.75935327 Z" fill="#FFFFFF"></path>
                        <path d="M39.3136222,10.0125183 C39.3136222,9.67596308 39.2036263,9.67596308 38.0442699,9.67596308 C37.6581844,9.67596308 37.6306855,9.44316183 37.6306855,9.13189986 C37.6306855,8.84696352 37.7131824,8.63945554 38.1823147,8.56202719 C39.2305753,8.38084484 39.9763473,7.78516272 40.1413411,5.55780712 C40.16939,5.11749789 40.3068849,4.93631555 40.4724286,4.93631555 C41.4937403,4.93631555 41.6312351,4.98793445 41.6312351,5.22073569 L41.6312351,7.96634506 C41.6312351,8.12171796 41.7967789,8.27760704 41.9623226,8.27760704 L45.9364732,8.27760704 C46.1850639,8.27760704 46.2400618,8.35503539 46.2400618,8.63997173 C46.2400618,9.77971707 45.9639722,9.83185216 45.6328847,9.83185216 L42.1559154,9.83185216 C41.7973288,9.83185216 41.6317851,9.90928051 41.6317851,10.3759154 L41.6317851,15.7886734 C41.6317851,17.3424023 42.1839643,18.2230208 43.866901,18.2230208 C45.0257075,18.2230208 45.7709295,17.3424023 46.0470191,17.3424023 C46.2950598,17.3424023 46.5986484,17.8348466 46.5986484,18.0681641 C46.5986484,18.1977275 45.3023471,19.933155 42.6800457,19.933155 C39.8938504,19.933155 39.3136222,18.1714019 39.3136222,16.4886257 L39.3136222,10.0125183 L39.3136222,10.0125183 Z" fill="#FFFFFF"></path>
                        <polygon fill="#FFFFFF" points="47.7580048 12.4215724 51.7354553 12.4215724 51.7354553 14.4419363 47.7580048 14.4419363"></polygon>
                        <path d="M64.5103751,16.3322204 C64.5103751,18.5074409 66.3869045,18.3262586 66.3869045,18.6111949 C66.3869045,18.8187029 65.6416825,19.9326388 64.6484199,19.9326388 C63.6821062,19.9326388 62.7718904,18.767084 62.358306,18.0676479 C61.1994995,19.310631 59.8482003,19.9326388 58.0536178,19.9326388 C55.8185018,19.9326388 54.2455609,18.7407584 54.2455609,16.8246647 C54.2455609,13.8462541 58.1091657,13.0951991 62.1916622,12.4478981 L62.1916622,11.8005971 C62.1916622,9.49581311 60.840363,9.15874169 59.1843753,9.15874169 C58.5502491,9.15874169 58.0530678,9.26301187 57.9705709,9.36624967 C57.142302,10.3764316 57.2522979,11.0758677 56.5626238,11.0758677 C55.9834956,11.0758677 55.7349049,10.8941692 55.7349049,10.5318045 C55.7349049,10.1689236 56.2040373,8.84851209 56.425129,8.09745707 C56.4801269,7.89046528 58.632746,7.76090184 59.2399232,7.76090184 C63.04743,7.76090184 64.5098251,8.92645663 64.5098251,11.6199309 L64.5098251,16.3322204 L64.5103751,16.3322204 Z M62.1916622,14.0785392 C62.1916622,13.8194123 62.1102653,13.7419839 61.8341757,13.7419839 C61.4761391,13.7419839 56.7298175,14.1564837 56.7298175,16.5128866 C56.7298175,17.8080048 57.7511291,18.3778775 59.0193815,18.3778775 C60.5367744,18.3778775 62.1922122,17.3160767 62.1922122,15.8655856 L62.1922122,14.0785392 L62.1916622,14.0785392 Z" fill="#FFFFFF"></path>
                        <polygon fill="#FFFFFF" points="68.3459309 12.4215724 72.3233814 12.4215724 72.3233814 14.4419363 68.3459309 14.4419363"></polygon>
                        <path d="M76.8750103,3.33096771 C76.8750103,2.6831505 76.4333769,2.44983306 76.0472914,2.39821416 L74.6668433,2.24284127 C74.4738005,2.21703182 74.4468515,2.06114274 74.4468515,1.54340515 C74.4468515,1.07728647 74.5568474,1.07728647 74.8884849,1.07728647 C75.2195725,1.07728647 75.6887049,1.15471483 76.2683831,1.23265937 C76.8480613,1.33589717 77.5102364,1.41384171 78.2549084,1.41384171 C78.9176335,1.41384171 79.6353565,1.36222281 80.4075275,1.33589717 C81.1796985,1.28479446 81.9799184,1.25846882 82.7245904,1.25846882 C84.9052584,1.25846882 88.0780891,2.29446017 88.0780891,5.53199767 C88.0780891,9.15770931 84.7122157,10.6603355 82.6695925,10.6603355 C80.8761099,10.6603355 80.020342,10.1678912 80.020342,9.70177253 C80.020342,9.57220909 80.1308879,9.57220909 80.4619754,9.57220909 C83.6634051,9.57220909 85.4288387,8.56254338 85.4288387,5.73898947 C85.4288387,3.74546749 83.3323175,2.65734105 81.0686026,2.65734105 C79.6892545,2.65734105 79.5237107,2.76109504 79.5237107,3.25353936 L79.5237107,16.4617839 C79.5237107,17.8606561 80.047841,18.2751559 81.0686026,18.4821477 L82.5865456,18.7928935 C82.9187331,18.8450285 82.973181,19.0520203 82.973181,19.4149012 C82.973181,19.6998376 82.7795883,19.933155 82.3660039,19.933155 C82.0079673,19.933155 80.6275192,19.5960836 78.1993605,19.5960836 C76.5989206,19.5960836 75.2470715,19.933155 74.833487,19.933155 C74.4468515,19.933155 74.3363057,19.6998376 74.3363057,19.4665201 C74.3363057,19.2073932 74.4188026,18.9229731 74.7779391,18.8450285 C76.2683831,18.5600922 76.8750103,18.4305288 76.8750103,16.6692919 L76.8750103,3.33096771 Z" fill="#E9708B"></path>
                        <path d="M95.3900643,7.75935327 C96.6044186,7.75935327 98.6739908,7.86362345 98.7564877,8.01796396 C98.7834367,8.06958287 98.8389846,8.1996625 98.8389846,8.32922594 C98.8389846,8.69159063 99.0050784,10.2974547 99.0050784,10.7119544 C99.0050784,11.0485097 98.7014898,11.3076366 98.1762596,11.3076366 C97.4865855,11.3076366 97.4315876,10.1420818 97.3490907,9.62434418 C97.2929928,9.2098444 96.5483208,9.0028526 95.5000602,9.0028526 C93.1274493,9.0028526 92.630268,9.98722506 92.630268,10.789899 C92.630268,13.1721113 99.5567077,11.6700012 99.5567077,16.202657 C99.5567077,17.601013 98.4803981,19.9326388 94.5617954,19.9326388 C91.913095,19.9326388 90.6992906,19.6993214 90.6437427,19.2848216 C90.5606958,18.5074409 90.3401541,16.8762836 90.3401541,16.64245 C90.3401541,16.3322204 90.6987406,15.9956652 91.0578771,15.9956652 C91.6089564,15.9956652 91.7750502,16.2547921 91.8300481,16.4881095 C91.912545,16.9800376 92.0500398,17.6273387 92.1616856,17.9902195 C92.2166836,18.1455924 93.2374452,18.6896557 94.5348464,18.6896557 C96.382777,18.6896557 97.2385448,17.6273387 97.2385448,16.6429662 C97.2385448,13.6908812 90.4776489,15.4521182 90.4776489,11.1785893 C90.4781989,9.75390762 91.4714616,7.75935327 95.3900643,7.75935327 Z" fill="#E9708B"></path>
                        <path d="M103.170622,11.7995647 C101.90127,9.44316183 101.598231,9.18351876 100.743013,8.84747971 C100.54942,8.76953517 100.494422,8.66578118 100.494422,8.45878938 C100.494422,8.1480436 100.659966,7.75935327 100.963555,7.75935327 C101.212695,7.75935327 102.509547,8.09590851 103.585856,8.09590851 C104.82716,8.09590851 105.792923,7.75935327 106.069563,7.75935327 C106.317604,7.75935327 106.455098,8.30341649 106.455098,8.51040828 C106.455098,8.71740008 106.372601,8.76953517 106.124011,8.84747971 C105.020202,9.18351876 104.882157,9.33940784 104.882157,9.57220909 C104.882157,9.77971707 105.240744,10.5307721 105.764874,11.540954 L108.883257,17.601013 L112.084137,11.8516998 C112.580218,10.9189462 112.912406,10.2458358 112.912406,9.72758198 C112.912406,9.41683619 112.553269,9.23513766 111.47751,8.84747971 C111.283917,8.76953517 111.118923,8.63997173 111.118923,8.45878938 C111.118923,8.2512814 111.311966,7.75935327 111.532507,7.75935327 C111.808597,7.75935327 113.022401,8.09590851 113.961216,8.09590851 C114.843383,8.09590851 115.864695,7.75935327 116.057737,7.75935327 C116.333827,7.75935327 116.499371,8.38136103 116.499371,8.53621774 C116.499371,8.63997173 116.416874,8.69159063 116.057737,8.84696352 C115.561106,9.05395532 115.229469,9.41683619 114.898931,9.98670887 L109.07575,20.009551 C106.15096,25.0341348 104.495522,26.7953718 102.095412,26.7953718 C101.047152,26.7953718 100.991054,26.6394827 100.991054,26.1217451 L100.991054,25.1378888 C100.991054,24.8266268 101.019103,24.7750079 101.212145,24.7750079 L102.287355,24.7750079 C104.384976,24.7750079 105.544333,23.1696601 107.558357,19.8283686 L103.170622,11.7995647 Z" fill="#E9708B"></path>
                        <path d="M124.169382,7.75935327 C126.541993,7.75935327 127.866893,8.76953517 127.866893,9.57220909 C127.866893,10.3237803 127.480808,10.6603355 126.818633,10.6603355 C125.659826,10.6603355 125.163195,9.15770931 123.313615,9.15770931 C121.714275,9.15770931 119.920242,10.5565815 119.920242,13.3532936 C119.920242,15.6844032 121.354038,18.2225046 124.307427,18.2225046 C126.350051,18.2225046 127.535806,16.7203946 127.812446,16.7203946 C127.977989,16.7203946 128.446572,17.2123227 128.446572,17.4456401 C128.446572,17.6784414 126.183957,19.9321226 123.42416,19.9321226 C119.699151,19.9321226 117.436536,17.5230685 117.436536,14.3118566 C117.436536,10.6603355 119.920242,7.75935327 124.169382,7.75935327 Z" fill="#E9708B"></path>
                        <path d="M131.618852,2.96808683 C131.618852,2.6831505 130.680588,2.57939651 130.10091,2.5277776 C129.880918,2.50248434 129.880918,2.29497636 129.880918,2.03584947 C129.880918,1.82885768 129.935916,1.6213497 130.294502,1.49230244 L133.164844,0.404692187 C133.633427,0.222993654 134.157557,0.0165180485 134.268103,0.0165180485 C134.461696,0.0165180485 134.681687,0.767573065 134.681687,0.922945958 C134.681687,1.1041283 133.937015,1.0525094 133.937015,2.24387365 L133.937015,10.0393601 C135.481357,8.51092447 136.861805,7.75986946 138.296701,7.75986946 C141.360086,7.75986946 142.683887,9.75442381 142.683887,13.1726275 L142.683887,16.9279025 C142.683887,18.2751559 142.766383,18.3783937 144.422371,18.8450285 C144.616514,18.8966474 144.697911,19.1036392 144.697911,19.3111472 C144.697911,19.6735119 144.587365,19.933155 144.256277,19.933155 C143.898791,19.933155 142.794432,19.5960836 141.52453,19.5960836 C140.255728,19.5960836 139.151919,19.933155 138.737785,19.933155 C138.406697,19.933155 138.296151,19.6735119 138.296151,19.3111472 C138.296151,19.1036392 138.379198,18.8966474 138.572241,18.8450285 C140.282677,18.3783937 140.365724,18.2751559 140.365724,16.9279025 L140.365724,14.3645079 C140.365724,10.5829072 139.648001,9.62486037 137.109846,9.62486037 C135.67495,9.62486037 133.937015,11.0232164 133.937015,11.4119067 L133.937015,16.9279025 C133.937015,18.2751559 134.019512,18.3783937 135.730498,18.8450285 C135.923541,18.8966474 136.007137,19.1036392 136.007137,19.3111472 C136.007137,19.6735119 135.896042,19.933155 135.565504,19.933155 C135.15082,19.933155 134.047561,19.5960836 132.777659,19.5960836 C131.508857,19.5960836 130.404498,19.933155 129.990914,19.933155 C129.659826,19.933155 129.54928,19.6735119 129.54928,19.3111472 C129.54928,19.1036392 129.631777,18.8966474 129.82537,18.8450285 C131.536356,18.3783937 131.619402,18.2751559 131.619402,16.9279025 L131.619402,2.96808683 L131.618852,2.96808683 Z" fill="#E9708B"></path>
                        <path d="M147.980737,10.4270181 C147.980737,10.1162723 147.870192,10.038844 146.518342,10.038844 C146.298351,10.038844 146.214754,9.88347106 146.214754,9.59853473 C146.214754,9.21036059 146.297801,9.18403495 146.462794,9.10609041 L149.719772,7.75935327 C149.967813,7.65611547 150.106408,7.60398038 150.215853,7.60398038 C150.409446,7.60398038 150.684436,8.01848015 150.684436,8.38136103 C150.684436,8.58835283 150.2989,8.71791627 150.2989,9.36521729 L150.2989,16.9273864 C150.2989,18.2746397 150.380847,18.3778775 152.092933,18.8445124 C152.285976,18.8961313 152.367922,19.1031231 152.367922,19.310631 C152.367922,19.6729957 152.257927,19.9326388 151.926289,19.9326388 C151.513255,19.9326388 150.408896,19.5955674 149.139544,19.5955674 C147.869642,19.5955674 146.766933,19.9326388 146.352799,19.9326388 C146.021711,19.9326388 145.911165,19.6729957 145.911165,19.310631 C145.911165,19.1031231 145.994212,18.8961313 146.187255,18.8445124 C147.897691,18.3778775 147.980737,18.2746397 147.980737,16.9273864 L147.980737,10.4270181 L147.980737,10.4270181 Z M149.278689,1.6213497 C150.133906,1.6213497 150.85108,2.29497636 150.85108,3.09765028 C150.85108,3.90084038 150.133356,4.57395086 149.278689,4.57395086 C148.422371,4.57395086 147.705198,3.90032419 147.705198,3.09765028 C147.705198,2.29446017 148.422371,1.6213497 149.278689,1.6213497 Z" fill="#E9708B"></path>
                        <path d="M160.977849,7.75935327 C163.35101,7.75935327 164.67536,8.76953517 164.67536,9.57220909 C164.67536,10.3237803 164.289274,10.6603355 163.627649,10.6603355 C162.468843,10.6603355 161.971112,9.15770931 160.122081,9.15770931 C158.522191,9.15770931 156.728159,10.5565815 156.728159,13.3532936 C156.728159,15.6844032 158.163055,18.2225046 161.116444,18.2225046 C163.158517,18.2225046 164.344272,16.7203946 164.620362,16.7203946 C164.785906,16.7203946 165.255038,17.2123227 165.255038,17.4456401 C165.255038,17.6784414 162.991873,19.9321226 160.233177,19.9321226 C156.508167,19.9321226 154.245002,17.5230685 154.245002,14.3118566 C154.245002,10.6603355 156.728159,7.75935327 160.977849,7.75935327 Z" fill="#E9708B"></path>
                        <path d="M169.586675,16.8241486 C170.496891,16.8241486 171.242113,17.5230685 171.242113,18.3778775 C171.242113,19.2326865 170.497441,19.9321226 169.586675,19.9321226 C168.676459,19.9321226 167.930687,19.2326865 167.930687,18.3778775 C167.930687,17.5230685 168.675909,16.8241486 169.586675,16.8241486 Z" fill="#FFFFFF"></path>
                        <path d="M181.42388,7.75935327 C183.797041,7.75935327 185.121941,8.76953517 185.121941,9.57220909 C185.121941,10.3237803 184.735306,10.6603355 184.073681,10.6603355 C182.914874,10.6603355 182.417143,9.15770931 180.568662,9.15770931 C178.968223,9.15770931 177.17419,10.5565815 177.17419,13.3532936 C177.17419,15.6844032 178.609086,18.2225046 181.562475,18.2225046 C183.604548,18.2225046 184.790854,16.7203946 185.066393,16.7203946 C185.232487,16.7203946 185.701619,17.2123227 185.701619,17.4456401 C185.701619,17.6784414 183.437905,19.9321226 180.679208,19.9321226 C176.954198,19.9321226 174.691583,17.5230685 174.691583,14.3118566 C174.691583,10.6603355 177.17364,7.75935327 181.42388,7.75935327 Z" fill="#FFFFFF"></path>
                        <path d="M194.116303,7.75935327 C197.896861,7.75935327 200.766653,10.0904629 200.766653,13.8462541 C200.766653,17.601013 197.896861,19.9326388 194.116303,19.9326388 C190.335745,19.9326388 187.466503,17.601013 187.466503,13.8462541 C187.466503,10.0899467 190.335745,7.75935327 194.116303,7.75935327 Z M194.116303,18.6891395 C196.958046,18.6891395 198.117403,16.4875933 198.117403,13.8462541 C198.117403,11.2043988 196.958046,9.0028526 194.116303,9.0028526 C191.27346,9.0028526 190.115754,11.2043988 190.115754,13.8462541 C190.115754,16.4875933 191.27346,18.6891395 194.116303,18.6891395 Z" fill="#FFFFFF"></path>
                        <path d="M204.628608,10.4270181 C204.628608,10.1162723 204.518062,10.038844 203.166213,10.038844 C202.945671,10.038844 202.862624,9.88347106 202.862624,9.59853473 C202.862624,9.21036059 202.945121,9.18403495 203.110665,9.10609041 L206.367643,7.75935327 C206.614583,7.65611547 206.753178,7.60398038 206.863724,7.60398038 C207.056217,7.60398038 207.332306,8.01848015 207.332306,8.38136103 C207.332306,8.58835283 206.946221,8.71791627 206.946221,9.36521729 L206.946221,9.98722506 C208.105027,8.74424191 209.732416,7.75986946 211.333406,7.75986946 C212.574709,7.75986946 214.1482,8.17436924 215.031467,10.1684074 C215.997231,9.18403495 217.790163,7.75986946 219.611695,7.75986946 C222.67453,7.75986946 223.99943,9.46948747 223.99943,13.9500081 L223.99943,16.9284187 C223.99943,18.2756721 224.082477,18.3789099 225.792912,18.8455447 C225.986505,18.8971636 226.069002,19.1041554 226.069002,19.3116634 C226.069002,19.6740281 225.959006,19.9336712 225.627369,19.9336712 C225.213784,19.9336712 224.110526,19.5965998 222.840623,19.5965998 C221.571821,19.5965998 220.466913,19.9336712 220.053878,19.9336712 C219.722791,19.9336712 219.612245,19.6740281 219.612245,19.3116634 C219.612245,19.1041554 219.694742,18.8971636 219.888334,18.8455447 C221.59932,18.3789099 221.682367,18.2756721 221.682367,16.9284187 L221.682367,14.8569522 C221.682367,11.153296 220.827149,9.62486037 218.757577,9.62486037 C217.102139,9.62486037 216.052779,10.3495897 215.335056,11.1785893 C215.417552,11.8258903 215.47365,13.3801354 215.47365,15.0892373 L215.47365,16.9279025 C215.47365,18.2751559 215.556147,18.3783937 217.267683,18.8450285 C217.460176,18.8966474 217.543223,19.1036392 217.543223,19.3111472 C217.543223,19.6735119 217.433227,19.933155 217.102139,19.933155 C216.687455,19.933155 215.583646,19.5960836 214.314844,19.5960836 C213.044942,19.5960836 211.941683,19.933155 211.527549,19.933155 C211.196461,19.933155 211.085915,19.6735119 211.085915,19.3111472 C211.085915,19.1036392 211.168412,18.8966474 211.362005,18.8450285 C213.072991,18.3783937 213.156037,18.2751559 213.156037,16.9279025 L213.156037,14.856436 C213.156037,10.9457881 212.521361,9.62434418 210.340693,9.62434418 C208.519712,9.62434418 206.947321,10.9457881 206.947321,11.2302082 L206.947321,16.9279025 C206.947321,18.2751559 207.029818,18.3783937 208.741353,18.8450285 C208.934396,18.8966474 209.016893,19.1036392 209.016893,19.3111472 C209.016893,19.6735119 208.906897,19.933155 208.57526,19.933155 C208.161675,19.933155 207.056767,19.5960836 205.788514,19.5960836 C204.518612,19.5960836 203.415904,19.933155 203.001219,19.933155 C202.670132,19.933155 202.559586,19.6735119 202.559586,19.3111472 C202.559586,19.1036392 202.643183,18.8966474 202.835675,18.8450285 C204.546661,18.3783937 204.629708,18.2751559 204.629708,16.9279025 L204.629708,10.4270181 L204.628608,10.4270181 Z" fill="#FFFFFF"></path>
                    </g>
                    <g>
                        <g id="humming-bird_8_">
                            <g id="Group">
                                <path d="M57.2731971,4.45987309 L44.6462218,4.27662599 L40.2144883,4.25959175 L37.9469236,5.69459721 L56.9531091,4.94199363 C57.301796,4.94199363 57.5932851,5.27906505 57.5932851,4.84185296 C57.5932851,4.54143095 57.5355372,4.45987309 57.2731971,4.45987309 Z" id="Shape" fill="url(#linearGradient-1)"></path>
                                <g transform="translate(13.199504, 0.000000)" id="Shape">
                                    <g>
                                        <path d="M7.91805236,3.56015563 C5.73793431,2.42092648 3.43572085,1.38854845 1.01416188,0.480571973 L1.010862,0.476442461 C0.943214545,0.444438742 0.878866963,0.420694047 0.8167193,0.405208377 C0.354736665,0.285452525 0.0137494832,0.589487855 0.0703973538,1.0571551 C0.0769971057,1.09741785 0.0841468369,1.13819678 0.0956964028,1.18104047 L0.625876473,2.92369458 C0.646225708,2.97841061 0.670424799,3.03209427 0.699023724,3.0873265 C0.975113346,3.62158213 1.65928763,4.13364163 2.2241164,4.35973242 L2.23621594,4.36644288 C4.6181764,5.17376249 6.91434009,6.06057522 9.11865723,7.0155249 C8.63192553,5.87319861 8.23154058,4.72003235 7.91805236,3.56015563 Z" fill="url(#linearGradient-2)"></path>
                                        <path d="M8.89151577,6.46062171 C6.85659226,5.56245282 4.65612498,4.72983994 2.234566,3.99736773 L2.22796625,3.99375441 C2.16361867,3.96794496 2.10147101,3.95039453 2.04097328,3.94058694 C1.60043984,3.85541575 1.30180107,4.1584187 1.39089772,4.59304985 C1.39859743,4.63228022 1.40849705,4.66996202 1.42114658,4.70867619 L2.0431732,6.305765 C2.06572235,6.35635153 2.09267134,6.40487329 2.1229202,6.45442744 C2.41935906,6.93809655 3.09693359,7.37582483 3.63976318,7.55287766 L3.65186273,7.55752336 C5.98157515,8.18211207 8.23044062,8.88877483 10.4001091,9.66512311 C9.82318075,8.60796801 9.31939968,7.53894056 8.89151577,6.46062171 Z" fill="url(#linearGradient-3)"></path>
                                        <path d="M10.0673716,9.03692108 C8.02529833,8.28689844 5.88477879,7.6406298 3.6606624,7.12444078 L3.65571258,7.12082746 C3.59576484,7.1001799 3.53746703,7.08830755 3.48246909,7.08211328 C3.07328448,7.03049438 2.82139394,7.3257545 2.93138981,7.71754196 C2.94128944,7.75212662 2.95338898,7.7861951 2.96768844,7.82129595 L3.64746289,9.24649382 C3.67221196,9.29036989 3.70026091,9.33321357 3.73160973,9.37657345 C4.03409836,9.80242939 4.68692382,10.1616969 5.19400476,10.292809 L5.20500434,10.2969385 C7.45111991,10.7449905 9.62738811,11.2771814 11.7255592,11.8852521 C11.1150822,10.9468204 10.5634529,9.99703265 10.0673716,9.03692108 Z" fill="url(#linearGradient-4)"></path>
                                    </g>
                                    <path d="M15.0490843,12.3967954 C14.9737371,12.433961 14.977037,12.4081515 15.1040822,12.3080109 L15.3257239,11.7226525 C15.3900715,11.0196031 15.1530304,9.90153768 14.9599877,9.13189986 C14.8549416,8.86348157 14.7718947,8.58164237 14.7234965,8.2889632 C14.6910478,8.09797326 14.6712485,7.90956427 14.6651987,7.7201229 C12.5857269,6.22111 10.3302617,4.82327015 7.91585244,3.55963945 C8.94706368,7.36911437 10.9220394,11.1140657 13.6834856,14.613311 L15.0490843,12.3967954 Z" fill="url(#linearGradient-5)"></path>
                                </g>
                                <path d="M40.0819433,4.25907556 L30.7608937,5.86235864 L28.3035861,12.3074947 L19.0578836,27.3497588 L22.426507,26.8485392 C40.7732673,24.1158346 38.0046714,13.6671365 37.5146398,10.8286131 C37.0246082,7.98750881 39.9455484,5.62284694 39.9455484,5.62284694 L40.4773785,4.26062413 L40.0819433,4.25907556 Z" id="Shape" fill="url(#linearGradient-6)"></path>
                                <path d="M32.1963397,2.85555763 C29.3628463,3.27728405 27.4252691,5.7281495 27.8762521,8.32612881 C27.9274002,8.6177756 28.0071472,8.8996148 28.1116433,9.16803309 C28.3800332,10.2318986 28.5246778,12.0664344 28.0500456,12.4463495 C27.6210617,12.7849695 28.7732684,12.1820607 29.6521354,11.2111092 C30.2087145,10.5978767 30.7344947,9.79933225 30.8730895,8.90735764 C31.764056,8.99201264 32.7633684,8.93884517 33.6405855,8.77418087 C33.6867837,8.77366468 33.7302321,8.77159993 33.7736804,8.76695423 C34.4138564,8.71430295 34.9951845,8.48924454 35.462117,8.14443027 C35.5803625,8.0680343 35.6815587,7.98596025 35.7651556,7.90027287 C36.1567409,7.49196736 37.2610994,6.20872147 38.1773649,5.48967017 C38.6959954,5.08188085 39.0870307,4.73964753 39.5666127,4.51045961 L39.5666127,4.50942723 C39.7310565,4.42270748 40.1820396,4.26939934 40.1820396,4.26939934 L40.1864394,4.2668184 C38.1955142,4.36024861 36.0302456,2.28465258 32.1963397,2.85555763 Z" id="Shape" fill="url(#linearGradient-7)"></path>
                                <g transform="translate(0.000000, 8.259024)" id="Shape">
                                    <path d="M9.65598703,0.261191641 C6.9220398,0.157437649 4.12264503,0.215767008 1.28200181,0.447535876 L1.27375212,0.445987309 C1.19125522,0.444954931 1.11535807,0.454246333 1.04716064,0.46611868 C0.535679864,0.561097459 0.365736252,1.01173047 0.678674489,1.43655403 C0.707823393,1.47371964 0.73477238,1.50933668 0.769421077,1.54753467 L2.234566,2.98718583 C2.28406414,3.03054571 2.3357622,3.07132464 2.39076013,3.11003881 C2.95228902,3.5007939 3.89495359,3.68249243 4.56482841,3.64119731 L4.57967785,3.64274588 C7.33562425,3.33096771 10.0431725,3.13533208 12.7017725,3.04912851 C11.6111635,2.16747767 10.5915019,1.23782126 9.65598703,0.261191641 Z" fill="url(#linearGradient-8)"></path>
                                    <path d="M12.1814921,2.61656212 C9.62078835,2.68573144 7.01443633,2.90149845 4.37783544,3.28812402 L4.37068571,3.28812402 C4.29478856,3.29225354 4.22494118,3.3030935 4.16169356,3.31909536 C3.68816136,3.44039978 3.56276608,3.87141761 3.88450398,4.25030035 C3.91420287,4.28333644 3.94225181,4.31637254 3.97580055,4.34734388 L5.45194506,5.6058127 C5.50034324,5.64401069 5.55314126,5.67962773 5.60923915,5.71421239 C6.16086841,6.04508955 7.05458482,6.15761876 7.67991131,6.07967421 L7.69476075,6.07915803 C10.2934131,5.6151041 12.8623665,5.26616033 15.3900715,5.02458387 C14.2560141,4.26630221 13.1846544,3.46207972 12.1814921,2.61656212 Z" fill="url(#linearGradient-9)"></path>
                                    <path d="M14.7256965,4.56827278 C12.3343864,4.77836171 9.91117744,5.13504832 7.46761929,5.65536684 L7.46046956,5.65536684 C7.38897225,5.66310968 7.33012446,5.67807916 7.27072669,5.69614578 C6.84614265,5.83551681 6.76144584,6.23659568 7.08153381,6.56334332 C7.11178267,6.59173372 7.14148155,6.61960792 7.17503029,6.64593356 L8.60992635,7.71186388 C8.65887451,7.74283522 8.70782267,7.77277418 8.76117067,7.79909982 C9.28750088,8.07061524 10.1146698,8.1196532 10.6816985,8.01331826 L10.695448,8.01280207 C13.114807,7.41608757 15.5187667,6.93448322 17.8836778,6.56024619 C16.785919,5.93256035 15.7310587,5.26977365 14.7256965,4.56827278 Z" fill="url(#linearGradient-10)"></path>
                                    <path d="M17.1632048,6.14006833 C15.0771333,6.49107686 12.9740123,6.95874411 10.8686914,7.55081291 L10.8620917,7.55081291 C10.7927943,7.56371763 10.7339465,7.58126806 10.6761987,7.60449656 C10.2626142,7.76864467 10.2109162,8.17488543 10.5557532,8.48098551 C10.5854521,8.50782734 10.6168009,8.53415298 10.6536495,8.55789767 L12.1682926,9.52833302 C12.2161408,9.55723961 12.2700388,9.58356525 12.3250367,9.60627756 C12.8711662,9.84269213 13.701085,9.84062738 14.2560141,9.69661064 L14.2714135,9.6940297 C16.3811342,9.02814587 18.4809553,8.45053036 20.563727,7.96221555 C19.3834714,7.39492382 18.249414,6.78633698 17.1632048,6.14006833 Z" fill="url(#linearGradient-11)"></path>
                                    <path d="M20.1352931,7.75264281 C18.2532639,8.18004732 16.3640849,8.7210134 14.4787557,9.38638104 L14.4738059,9.38638104 C14.4149581,9.40186671 14.3632601,9.42044952 14.3176118,9.44212946 C13.9733247,9.60576137 13.9546254,9.95522134 14.2708636,10.197314 C14.2972626,10.2195101 14.3280614,10.2396415 14.3588603,10.2577081 L15.7178592,11.0051498 C15.7624075,11.0273459 15.8086058,11.0464449 15.8581039,11.0639953 C16.3409857,11.2348539 17.051559,11.1878807 17.5168415,11.0350888 L17.5278411,11.0319916 C19.4021707,10.3005518 21.2765002,9.66047741 23.1337804,9.10557422 C22.1036691,8.68281542 21.1043567,8.23166622 20.1352931,7.75264281 Z" fill="url(#linearGradient-12)"></path>
                                    <path d="M24.794168,9.75700476 C24.1303429,9.51233116 23.4791674,9.25113952 22.8351416,8.98323742 C21.2484513,9.48084363 19.6639608,10.063621 18.0926699,10.7367315 L18.0860701,10.7377639 C18.0294223,10.7558305 17.9804741,10.7785428 17.9348258,10.8033199 C17.6092381,10.9896641 17.6147379,11.3386079 17.9469254,11.560053 C17.9755243,11.5801844 18.0074231,11.5987672 18.0398719,11.6163176 L19.4511188,12.27291 C19.4962171,12.2914928 19.5457153,12.3069785 19.5963134,12.3209156 C19.9230011,12.4153782 20.3409854,12.4045382 20.7188212,12.3338203 C21.6262871,12.1918683 22.6189998,11.9745528 23.5748638,11.7402029 C25.1236056,11.3582231 26.5706012,10.9261729 27.3840206,10.6742726 C27.3840206,10.6742726 27.4087697,10.6654974 27.4351687,10.6531089 C26.5387024,10.374883 25.6576355,10.0770419 24.794168,9.75700476 Z" fill="url(#linearGradient-13)"></path>
                                </g>
                                <path d="M27.3840206,18.9343292 C27.1145308,19.0179519 26.7696937,19.122222 26.3781084,19.2383646 C25.591638,19.4701334 24.607175,19.7462946 23.5748638,20.0002596 C22.9990355,20.1422115 22.4083577,20.2748721 21.8347292,20.3904985 C20.9063641,21.0543175 20.0890949,21.8766066 19.392271,22.8248459 C20.4405316,22.5574599 21.4244447,22.2812988 22.34511,22.0010082 C24.1451924,21.4517831 25.6895343,20.8813942 26.9511869,20.3285558 C29.6009873,19.1671305 31.0006847,18.0800364 30.8818892,17.3966022 C30.3891077,17.8172962 27.3840206,18.9343292 27.3840206,18.9343292 Z" id="Shape" fill="url(#linearGradient-14)" opacity="0.1"></path>
                                <path d="M36.0054966,6.58140994 L36.0054966,6.58140994 C35.6425102,5.81693401 34.2972608,4.69370671 33.4513926,4.76442461 C33.2314008,4.78249122 33.0273585,4.83823963 32.8442154,4.92547558 L32.8431154,4.92547558 C32.8431154,4.92547558 32.8381656,4.92857271 32.8293659,4.93115366 C32.8260661,4.9337346 32.8249661,4.93425079 32.8205663,4.93579936 C32.5906749,5.04936094 30.6613474,6.07915803 30.9203877,8.86967584 C31.1233301,11.0335402 34.5640007,9.19435873 35.7486562,7.92504994 C36.2793863,7.35775822 36.154541,6.94532319 36.0054966,6.58140994 Z" id="Shape" fill="url(#linearGradient-15)" opacity="0.6"></path>
                            </g>
                            <g id="eye_9_" transform="translate(31.348822, 4.129512)">
                                <path d="M0.439433482,2.28568496 C0.524130298,3.1998557 1.4018973,3.87399856 2.39845984,3.7919245 C3.39337244,3.70985045 4.13254466,2.90356321 4.0461979,1.98939246 C3.96205107,1.07677028 3.08483404,0.401595053 2.08992144,0.484185296 C1.09170896,0.566259349 0.355286645,1.37306278 0.439433482,2.28568496 Z" id="Shape" fill="#FFFFFF" opacity="0.6"></path>
                                <path d="M1.22810384,3.24631271 C1.89357882,3.75940459 2.88739146,3.67733054 3.4478204,3.06409799 C4.00879931,2.45138163 3.92245256,1.53927564 3.25697757,1.02773233 C2.59040263,0.516705204 1.59768994,0.598263068 1.03616105,1.21097943 C0.476832076,1.82421198 0.560978913,2.73528559 1.22810384,3.24631271 Z" id="Shape" fill="url(#linearGradient-16)"></path>
                                <path d="M1.4497455,3.00422007 C1.97112591,3.40426655 2.74769671,3.34025911 3.18603024,2.86123571 C3.6232638,2.38272849 3.5567163,1.66987146 3.03588588,1.27085735 C2.51725538,0.870810868 1.74068457,0.935334495 1.303451,1.41332552 C0.862917563,1.89183274 0.929465061,2.60365739 1.4497455,3.00422007 Z" id="Shape" fill="url(#linearGradient-17)"></path>
                                <path d="M1.60483967,2.83491007 C2.0244739,3.15597964 2.64540056,3.10436073 2.99903727,2.72031611 C3.35267397,2.33472291 3.29767604,1.76330167 2.88134169,1.44119973 C2.46170746,1.12064635 1.83803091,1.17071669 1.48329424,1.55630988 C1.13405737,1.9408707 1.18795534,2.51229193 1.60483967,2.83491007 Z" id="Shape" fill="url(#linearGradient-18)"></path>
                                <path d="M2.35996129,2.35382191 C2.50845571,2.46428636 2.7267975,2.44621974 2.84889291,2.31304297 C2.97318824,2.17831764 2.95503892,1.9780363 2.80709448,1.86705567 C2.66134996,1.75401027 2.44520808,1.7715607 2.32036278,1.90680222 C2.19771739,2.04101136 2.21806662,2.24026032 2.35996129,2.35382191 Z" id="Shape" fill="#FFFFFF"></path>
                                <path d="M1.20115485,2.10553499 C1.36889854,2.23354987 1.68898651,2.13444158 1.91667795,1.88615466 C2.14326943,1.63735155 2.19166762,1.33125147 2.02612384,1.20323659 C1.86003008,1.07677028 1.54104207,1.17536239 1.31225067,1.42313311 C1.08510921,1.6729686 1.03561107,1.9780363 1.20115485,2.10553499 Z" id="Shape" fill="url(#linearGradient-19)" opacity="0.6"></path>
                            </g>
                        </g>
                        <path d="M28.3816831,12.0994705 C22.7806937,10.025423 16.4223827,8.77521325 9.65213718,8.51969969 C13.4909929,12.5206807 18.6926973,15.7582182 24.793618,18.016029 C25.6570856,18.3360662 26.5381524,18.6333911 27.4346187,18.9126493 C27.4082197,18.925554 27.3867705,18.9338131 27.3867705,18.9338131 C27.3246229,18.9523959 27.2591753,18.9725272 27.189328,18.9926586 C27.1733786,18.9983367 27.1552292,19.0040148 27.1392798,19.0107252 C27.0743823,19.0298242 27.0105847,19.0489232 26.9429372,19.0695708 C26.9330376,19.0716355 26.9275378,19.0716355 26.9203881,19.0762812 C26.7526444,19.1273839 26.5722512,19.1810676 26.3775585,19.2383646 C26.0871694,19.3235358 25.7659815,19.4154174 25.4255443,19.5114286 C25.4200445,19.5129771 25.4123448,19.5145257 25.405195,19.5165905 C25.3028989,19.5444647 25.2000527,19.5738874 25.0950067,19.6017616 C25.0823572,19.6069235 25.0669577,19.611053 25.0548582,19.6151826 C24.8310166,19.6750605 24.6011252,19.736487 24.3668341,19.7979135 C24.342085,19.8041077 24.3184359,19.8108182 24.289287,19.8180448 C24.1990904,19.8423057 24.1077938,19.8660504 24.0159472,19.8887627 C23.9851484,19.8975379 23.9570995,19.9042484 23.9285005,19.9114751 C23.8113549,19.9403816 23.6931094,19.9703206 23.5748638,20.0002596 C22.9990355,20.1422115 22.4083577,20.2748721 21.8347292,20.3904985 C20.9063641,21.0543175 20.0890949,21.8766066 19.392271,22.8248459 C17.2792505,25.7031158 16.8607162,28.7073359 17.5943886,32.9545391 C18.0019233,35.3011343 18.8829902,37.4293816 20.0890949,39.227268 L20.0956946,39.2468832 L20.3739841,39.6469296 C20.3750841,39.647962 20.3756341,39.6489944 20.3761841,39.6495106 L20.3761841,39.6489944 L20.6011256,39.9726449 C20.6011256,39.9726449 20.7391704,40.1336959 20.9564122,40.1336959 C21.1098565,40.1336959 21.5135413,39.9690316 21.6455363,39.0300838 C21.7681817,39.2639174 21.8957769,39.497751 22.0376716,39.7295199 C22.1410677,39.8972813 22.3088114,40.0087781 22.4952544,40.0505895 C22.666848,40.0898198 22.8549409,40.0691723 23.0188347,39.9798716 C23.1321305,39.9199936 23.2113275,39.8312091 23.2712752,39.732617 C23.2740251,39.735198 23.2751251,39.7367465 23.2789749,39.7388113 C23.3026241,39.6964838 23.3224233,39.6448649 23.3438725,39.5947946 C23.3460724,39.5860193 23.3537721,39.5777603 23.357072,39.5679527 C23.491267,39.2179766 23.518216,38.7337913 23.5193159,38.4498873 C23.67551,38.6191973 23.8344541,38.7864426 24.0060476,38.9521392 C24.1066938,39.0481504 24.2265893,39.1106093 24.3547345,39.1389997 C24.5868258,39.1916509 24.8409162,39.134354 25.0240593,38.9671087 C25.3083987,38.708498 25.3155484,38.2805773 25.0394588,38.0131914 C24.8156172,37.7958758 24.6137748,37.572366 24.421282,37.3452428 C25.0114098,37.6368896 25.4084949,37.6792171 25.6405862,37.66528 C25.6526857,37.6657962 25.6642353,37.66528 25.673035,37.6637315 C25.7665314,37.6554724 25.8275791,37.6399868 25.8594779,37.629663 C25.8611279,37.6291468 25.8655277,37.6265658 25.8666277,37.6260497 C25.8792772,37.6224363 25.885877,37.6177906 25.885877,37.6177906 L25.884777,37.6172744 C26.0068724,37.5708174 26.1179682,37.49597 26.2010151,37.3880865 C26.4347563,37.0866321 26.362159,36.6654219 26.0398712,36.4465578 C25.6334364,36.171429 25.2732,35.8720394 24.9487122,35.5525184 C25.8809271,35.955662 26.4826045,36.0062485 26.8054424,35.9825038 C26.8719899,35.98302 26.9352375,35.9726962 26.9973852,35.9577268 C27.0083848,35.9546296 27.0182844,35.9535972 27.0248841,35.9505001 C27.0479833,35.9437897 27.0705324,35.9396601 27.0947315,35.9303687 C27.1040812,35.9267554 27.1101309,35.9236583 27.1101309,35.9236583 L27.108481,35.9221097 C27.2333263,35.8668775 27.347172,35.7817063 27.4225192,35.6624666 C27.6282115,35.3434618 27.5187656,34.9284459 27.1794283,34.734875 C26.9770359,34.620281 26.7845432,34.500009 26.60195,34.3761236 C26.8032425,34.4184511 27.0050849,34.4602624 27.2124271,34.4943309 C27.4170194,34.527367 27.615012,34.4772967 27.7690062,34.3694132 C27.9109008,34.2697887 28.012647,34.1206101 28.0450958,33.945622 C28.0687449,33.8258661 28.0461957,33.7117884 28.0027474,33.6059696 C28.0065972,33.6054534 28.0093471,33.6059696 28.013747,33.604421 C27.9933977,33.5595126 27.9642488,33.5120232 27.9367499,33.46505 C27.9301501,33.4573072 27.9285002,33.4469834 27.9230004,33.4382082 C27.7217079,33.1176548 27.3416722,32.7888424 27.109581,32.6076601 C27.348272,32.6024982 27.586963,32.5947553 27.8328038,32.5766887 C27.9746984,32.5653326 28.1028436,32.5183594 28.2078897,32.4440281 C28.3992825,32.309819 28.5147781,32.0904387 28.4944289,31.8514432 C28.4630801,31.4803032 28.1171431,31.2015612 27.7217079,31.2304678 C27.40107,31.2536963 27.0892317,31.2573096 26.7795934,31.2516315 C27.3950202,31.0110874 27.6837594,30.7514444 27.8201542,30.5743915 C27.8289539,30.5661325 27.8350037,30.5573573 27.8405035,30.5501306 C27.8933015,30.477348 27.9197005,30.4231481 27.9307001,30.3937254 C27.9307001,30.3921768 27.9329,30.3870149 27.9329,30.3859825 C27.9372998,30.3751426 27.9383998,30.3673997 27.9383998,30.3673997 L27.9372998,30.3679159 C27.9768983,30.2497086 27.986248,30.1216938 27.9504993,29.9926465 C27.852053,29.6313142 27.4610177,29.4145148 27.0749323,29.507945 C26.5898505,29.6261523 26.1152183,29.6937731 25.644986,29.7252606 C26.5717012,29.3086961 26.9962852,28.9065848 27.1832782,28.6582979 C27.2261766,28.6102923 27.2580754,28.5586734 27.2855743,28.5039574 C27.2894242,28.4936336 27.294924,28.4869232 27.2965739,28.4796965 C27.3059236,28.4590489 27.3169232,28.4394338 27.3251728,28.4162053 C27.3273728,28.40743 27.3295727,28.4012358 27.3295727,28.4012358 L27.3273728,28.401752 C27.3625714,28.276318 27.3642214,28.1395279 27.3158232,28.0084159 C27.1849281,27.6558588 26.7751935,27.470547 26.3995576,27.5918514 C25.7280329,27.8117479 25.0768574,27.937698 24.4465811,27.9743475 C24.9195633,26.8795106 25.4799922,26.3979062 25.9799234,26.2064001 C25.9815734,26.2053677 25.9804734,26.2027868 25.9832233,26.2017544 C25.9975228,26.1955601 26.0305215,26.184204 26.07122,26.170783 C26.0816696,26.1676859 26.0915692,26.1635564 26.1025688,26.1604593 C26.2747123,26.105227 26.5986502,26.0092159 26.9363375,25.91114 C31.4615674,24.6738349 34.1955146,22.8392991 35.7987043,20.8493905 C36.872264,19.5196876 37.4447925,18.1239125 37.7241819,16.7921448 C34.9495362,14.9457367 31.8075044,13.3682631 28.3816831,12.0994705 Z" id="Shape" fill="url(#linearGradient-20)"></path>
                        <path d="M27.720608,31.2304678 C27.39997,31.2536963 27.0881318,31.2573096 26.7784934,31.2516315 C27.3939203,31.0110874 27.6826594,30.7514444 27.8190543,30.5743915 C27.827854,30.5661325 27.8339037,30.5573573 27.8394035,30.5501306 C27.8922015,30.477348 27.9186005,30.4231481 27.9296001,30.3937254 C27.9296001,30.3921768 27.9318,30.3870149 27.9318,30.3859825 C27.9361999,30.3751426 27.9372998,30.3673997 27.9372998,30.3673997 L27.9361999,30.3679159 C27.9757984,30.2497086 27.985148,30.1216938 27.9493994,29.9926465 C27.8509531,29.6313142 27.4599178,29.4145148 27.0738323,29.507945 C26.5887505,29.6261523 26.1141184,29.6937731 25.643886,29.7252606 C26.5706012,29.3086961 26.9951853,28.9065848 27.1821782,28.6582979 C27.2250766,28.6102923 27.2569754,28.5586734 27.2844744,28.5039574 C27.2883242,28.4936336 27.293824,28.4869232 27.295474,28.4796965 C27.3048236,28.4590489 27.3158232,28.4394338 27.3240729,28.4162053 C27.3262728,28.40743 27.3284727,28.4012358 27.3284727,28.4012358 L27.3262728,28.401752 C27.3614715,28.276318 27.3631214,28.1395279 27.3147232,28.0084159 C27.1838282,27.6558588 26.7740936,27.470547 26.3984577,27.5918514 C25.7269329,27.8117479 25.0757574,27.937698 24.4454811,27.9743475 C24.9184633,26.8795106 25.4788922,26.3979062 25.9788235,26.2064001 C25.9804734,26.2053677 25.9793734,26.2027868 25.9821233,26.2017544 C25.9964228,26.1955601 26.0294216,26.184204 26.07012,26.170783 C26.0805696,26.1676859 26.0904693,26.1635564 26.1014688,26.1604593 C26.1641665,26.1403279 26.2488633,26.1145184 26.3445597,26.0850957 L26.3220106,26.0768366 C26.3220106,26.0768366 23.7420575,26.4908202 21.9155762,28.183404 L21.9117263,28.1782421 C21.9117263,28.1782421 21.8605783,28.2257315 21.7764314,28.3139998 C21.4326943,28.6526198 21.1203061,29.0387292 20.8629158,29.4811032 C20.1182438,30.6265266 19.340573,32.4306072 19.9021019,34.5196242 C20.5994757,34.3776722 21.1841037,34.1908118 21.6834849,33.9817552 C23.0336842,34.4736833 24.794168,34.1536462 24.794168,34.1536462 C24.794168,34.1536462 26.3775585,33.9497515 28.0346462,33.721596 C28.0258465,33.6823656 28.0175968,33.642619 28.0016474,33.6049372 C28.0054973,33.604421 28.0082472,33.6049372 28.012647,33.6033887 C27.9922978,33.5584802 27.9631489,33.5109908 27.9356499,33.4640176 C27.9290501,33.4562748 27.9274002,33.445951 27.9219004,33.4371758 C27.720608,33.1166224 27.3405723,32.78781 27.108481,32.6066277 C27.347172,32.6014658 27.585863,32.593723 27.8317038,32.5756563 C27.9735985,32.5643002 28.1017437,32.517327 28.2067897,32.4429958 C28.3981825,32.3087866 28.5136782,32.0894063 28.4933289,31.8504108 C28.4625301,31.4803032 28.1165931,31.2015612 27.720608,31.2304678 Z" id="Shape" fill="url(#linearGradient-21)"></path>
                        <path d="M27.720608,31.2304678 C27.39997,31.2536963 27.0881318,31.2573096 26.7784934,31.2516315 C27.3939203,31.0110874 27.6826594,30.7514444 27.8190543,30.5743915 C27.827854,30.5661325 27.8339037,30.5573573 27.8394035,30.5501306 C27.8922015,30.477348 27.9186005,30.4231481 27.9296001,30.3937254 C27.9296001,30.3921768 27.9318,30.3870149 27.9318,30.3859825 C27.9361999,30.3751426 27.9372998,30.3673997 27.9372998,30.3673997 L27.9361999,30.3679159 C27.9757984,30.2497086 27.985148,30.1216938 27.9493994,29.9926465 C27.8509531,29.6313142 27.4599178,29.4145148 27.0738323,29.507945 C26.5887505,29.6261523 26.1141184,29.6937731 25.643886,29.7252606 C26.5706012,29.3086961 26.9951853,28.9065848 27.1821782,28.6582979 C27.2250766,28.6102923 27.2569754,28.5586734 27.2844744,28.5039574 C27.2883242,28.4936336 27.293824,28.4869232 27.295474,28.4796965 C27.3048236,28.4590489 27.3158232,28.4394338 27.3240729,28.4162053 C27.3262728,28.40743 27.3284727,28.4012358 27.3284727,28.4012358 L27.3262728,28.401752 C27.3614715,28.276318 27.3631214,28.1395279 27.3147232,28.0084159 C27.1838282,27.6558588 26.7740936,27.470547 26.3984577,27.5918514 C25.7269329,27.8117479 25.0757574,27.937698 24.4454811,27.9743475 C24.9184633,26.8795106 25.4788922,26.3979062 25.9788235,26.2064001 C25.9804734,26.2053677 25.9793734,26.2027868 25.9821233,26.2017544 C25.9964228,26.1955601 26.0294216,26.184204 26.07012,26.170783 C26.0805696,26.1676859 26.0904693,26.1635564 26.1014688,26.1604593 C26.3709587,26.0737395 27.0105847,25.8879115 27.4923666,25.750089 L27.7393073,25.0831728 C27.7393073,25.0831728 22.3885584,23.4742116 22.293412,23.3658119 C22.2516136,23.3198711 22.028322,24.4751021 21.7912809,25.7888032 C21.7863311,25.7980946 21.7802813,25.8042888 21.7758814,25.8140964 C21.4381941,25.7557671 21.1016068,25.9281742 20.9767615,26.236339 C20.9388129,26.331834 21.3281983,26.0794176 21.0757578,27.1778678 C20.9283633,27.8158774 20.7914185,28.5834505 20.7182712,29.4351624 C20.5747266,30.0344578 20.456481,30.6719513 20.3750841,31.3342218 C20.0560961,33.9120697 20.3123865,36.8966746 22.0382216,39.7295199 C22.1416177,39.8972813 22.3093614,40.0087781 22.4958044,40.0505895 C22.6673979,40.0898198 22.8554909,40.0691723 23.0193847,39.9798716 C23.1326804,39.9199936 23.2118775,39.8312091 23.2718252,39.732617 C23.2745751,39.735198 23.2756751,39.7367465 23.2795249,39.7388113 C23.303174,39.6964838 23.3229733,39.6448649 23.3444225,39.5947946 C23.3466224,39.5860193 23.3543221,39.5777603 23.357622,39.5679527 C23.4918169,39.2179766 23.5187659,38.7337913 23.5198659,38.4498873 C23.67606,38.6191973 23.835004,38.7864426 24.0065976,38.9521392 C24.1072438,39.0481504 24.2271393,39.1106093 24.3552845,39.1389997 C24.5873758,39.1916509 24.8414662,39.134354 25.0246093,38.9671087 C25.3089486,38.708498 25.3160984,38.2805773 25.0400087,38.0131914 C24.8161672,37.7958758 24.6143247,37.572366 24.421832,37.3452428 C25.0119598,37.6368896 25.4090449,37.6792171 25.6411362,37.66528 C25.6532357,37.6657962 25.6647853,37.66528 25.6735849,37.6637315 C25.7670814,37.6554724 25.8281291,37.6399868 25.8600279,37.629663 C25.8616779,37.6291468 25.8660777,37.6265658 25.8671777,37.6260497 C25.8798272,37.6224363 25.8864269,37.6177906 25.8864269,37.6177906 L25.885327,37.6172744 C26.0074224,37.5708174 26.1185182,37.49597 26.2015651,37.3880865 C26.4353063,37.0866321 26.362709,36.6654219 26.0404211,36.4465578 C25.6339864,36.171429 25.27375,35.8720394 24.9492622,35.5525184 C25.8814771,35.955662 26.4831545,36.0062485 26.8059924,35.9825038 C26.8725399,35.98302 26.9357875,35.9726962 26.9979351,35.9577268 C27.0089347,35.9546296 27.0188344,35.9535972 27.0254341,35.9505001 C27.0485332,35.9437897 27.0710824,35.9396601 27.0952815,35.9303687 C27.1046311,35.9267554 27.1106809,35.9236583 27.1106809,35.9236583 L27.109031,35.9221097 C27.2338763,35.8668775 27.347722,35.7817063 27.4230692,35.6624666 C27.6287614,35.3434618 27.5193155,34.9284459 27.1799783,34.734875 C26.9775859,34.620281 26.7850931,34.500009 26.6025,34.3761236 C26.8037924,34.4184511 27.0056349,34.4602624 27.2129771,34.4943309 C27.4175694,34.527367 27.6155619,34.4772967 27.7695561,34.3694132 C27.9114508,34.2697887 28.013197,34.1206101 28.0456458,33.945622 C28.0692949,33.8258661 28.0467457,33.7117884 28.0032974,33.6059696 C28.0071472,33.6054534 28.0098971,33.6059696 28.0142969,33.604421 C27.9939477,33.5595126 27.9647988,33.5120232 27.9372998,33.46505 C27.9307001,33.4573072 27.9290501,33.4469834 27.9235504,33.4382082 C27.7222579,33.1176548 27.3422222,32.7888424 27.1101309,32.6076601 C27.348822,32.6024982 27.587513,32.5947553 27.8333537,32.5766887 C27.9752484,32.5653326 28.1033936,32.5183594 28.2084396,32.4440281 C28.3998325,32.309819 28.5153281,32.0904387 28.4949789,31.8514432 C28.4625301,31.4803032 28.1165931,31.2015612 27.720608,31.2304678 Z" id="Shape" fill="url(#linearGradient-22)"></path>
                    </g>
                </g>
            </g>
        </g>
    </g>
</svg>