<?xml version="1.0" encoding="UTF-8"?>
<svg width="268px" height="278px" viewBox="0 0 268 278" version="1.1" xmlns="http://www.w3.org/2000/svg" xmlns:xlink="http://www.w3.org/1999/xlink">
    <title>image2</title>
    <g id="Milestone-1---360x640dp-Android-Mobile" stroke="none" stroke-width="1" fill="none" fill-rule="evenodd">
        <g id="HIW---3rd-state" transform="translate(-45.000000, -109.000000)" fill="#FFFFFF">
            <g id="Group" transform="translate(43.000000, 107.578125)">
                <g id="communication-methods" transform="translate(2.000000, 2.081181)">
                    <g id="call" transform="translate(152.488941, 0.000000)">
                        <path d="M23.0764071,53.5062644 C32.0505654,72.7136414 47.4348367,88.4911296 65.3831533,98.7807958 L79.4854021,83.6892854 C81.408436,81.6313521 83.9724812,80.9453744 85.8955152,82.3173299 C92.9466395,85.0612409 100.638775,86.4331964 108.971922,86.4331964 C112.81799,86.4331964 115.382035,89.1771074 115.382035,93.2929739 L115.382035,116.616217 C115.382035,120.732084 112.81799,123.475995 108.971922,123.475995 C48.7168594,123.475995 0,71.3416859 0,6.85977749 C0,2.743911 2.56404523,0 6.41011307,0 L28.8455088,0 C32.6915767,0 35.2556219,2.743911 35.2556219,6.85977749 C35.2556219,15.0915105 36.5376445,23.3232435 39.1016897,31.5549764 C39.742701,33.6129097 39.1016897,36.3568207 37.8196671,38.4147539 L23.0764071,53.5062644 L23.0764071,53.5062644 Z" id="Shape"></path>
                    </g>
                    <g id="email" transform="translate(0.000000, 163.185921)">
                        <path d="M104.545684,2.71306548 L12.6044156,2.71306548 C6.28345339,2.71306548 1.11175704,8.24755228 1.11175704,15.011925 L1.11175704,88.8050823 C1.11175704,95.5694551 6.28345339,101.103942 12.6044156,101.103942 L104.545684,101.103942 C110.866646,101.103942 116.038342,95.5694551 116.038342,88.8050823 L116.038342,15.011925 C116.038342,8.24755228 110.866646,2.71306548 104.545684,2.71306548 L104.545684,2.71306548 Z M104.545684,27.3107846 L58.5750498,58.0579335 L12.6044156,27.3107846 L12.6044156,15.011925 L58.5750498,45.7590739 L104.545684,15.011925 L104.545684,27.3107846 L104.545684,27.3107846 Z" id="Shape"></path>
                    </g>
                    <g id="SMS-icon-illustration" transform="translate(172.905123, 152.673290)">
                        <g id="phone-2">
                            <path d="M65.2155714,0 L10.8692619,0 C4.89116786,0 0,5.08970235 0,11.3104497 L0,113.104497 C0,119.325244 4.89116786,124.414946 10.8692619,124.414946 L65.2155714,124.414946 C71.1936655,124.414946 76.0848333,119.325244 76.0848333,113.104497 L76.0848333,11.3104497 C76.0848333,5.08970235 71.1936655,0 65.2155714,0 L65.2155714,0 Z M65.2155714,101.794047 L10.8692619,101.794047 L10.8692619,22.6208993 L65.2155714,22.6208993 L65.2155714,101.794047 L65.2155714,101.794047 Z" id="Shape"></path>
                        </g>
                        <g id="message" transform="translate(16.303893, 39.586574)">
                            <path d="M38.3364387,0 L4.2596043,0 C1.91682193,0 0,1.99462652 0,4.43250337 L0,44.3250337 L8.5192086,35.4600269 L38.3364387,35.4600269 C40.6792211,35.4600269 42.596043,33.4654004 42.596043,31.0275236 L42.596043,4.43250337 C42.596043,1.99462652 40.6792211,0 38.3364387,0 L38.3364387,0 Z M34.0768344,26.5950202 L8.5192086,26.5950202 L8.5192086,22.1625168 L34.0768344,22.1625168 L34.0768344,26.5950202 L34.0768344,26.5950202 Z M34.0768344,19.9462652 L8.5192086,19.9462652 L8.5192086,15.5137618 L34.0768344,15.5137618 L34.0768344,19.9462652 L34.0768344,19.9462652 Z M34.0768344,13.2975101 L8.5192086,13.2975101 L8.5192086,8.86500673 L34.0768344,8.86500673 L34.0768344,13.2975101 L34.0768344,13.2975101 Z" id="Shape"></path>
                        </g>
                    </g>
                    <g id="Chat-icon-illustration">
                        <g id="textsms" transform="translate(88.678440, 99.492935) scale(-1, 1) translate(-88.678440, -99.492935) translate(65.178440, 75.039060)">
                            <path d="M42.1756635,0 L4.68618483,0 C2.10878317,0 -5.68434189e-14,2.19437954 -5.68434189e-14,4.87639897 L-5.68434189e-14,48.7639897 L9.37236966,39.0111918 L42.1756635,39.0111918 C44.7530651,39.0111918 46.8618483,36.8168123 46.8618483,34.1347928 L46.8618483,4.87639897 C46.8618483,2.19437954 44.7530651,0 42.1756635,0 L42.1756635,0 Z M16.4016469,21.9437954 L11.7154621,21.9437954 L11.7154621,17.0673964 L16.4016469,17.0673964 L16.4016469,21.9437954 L16.4016469,21.9437954 Z M25.7740166,21.9437954 L21.0878317,21.9437954 L21.0878317,17.0673964 L25.7740166,17.0673964 L25.7740166,21.9437954 L25.7740166,21.9437954 Z M35.1463862,21.9437954 L30.4602014,21.9437954 L30.4602014,17.0673964 L35.1463862,17.0673964 L35.1463862,21.9437954 L35.1463862,21.9437954 Z" id="Shape"></path>
                        </g>
                        <g id="textsms" transform="translate(0.919918, 0.000000)">
                            <path d="M76.4917499,0 L8.49908332,0 C3.82458749,0 0,3.97982905 0,8.84406456 L0,88.4406456 L16.9981666,70.7525165 L76.4917499,70.7525165 C81.1662457,70.7525165 84.9908332,66.7726875 84.9908332,61.9084519 L84.9908332,8.84406456 C84.9908332,3.97982905 81.1662457,0 76.4917499,0 L76.4917499,0 Z M29.7467916,39.7982905 L21.2477083,39.7982905 L21.2477083,30.954226 L29.7467916,30.954226 L29.7467916,39.7982905 L29.7467916,39.7982905 Z M46.7449583,39.7982905 L38.2458749,39.7982905 L38.2458749,30.954226 L46.7449583,30.954226 L46.7449583,39.7982905 L46.7449583,39.7982905 Z M63.7431249,39.7982905 L55.2440416,39.7982905 L55.2440416,30.954226 L63.7431249,30.954226 L63.7431249,39.7982905 L63.7431249,39.7982905 Z" id="Shape"></path>
                        </g>
                    </g>
                </g>
            </g>
        </g>
    </g>
</svg>