<?xml version="1.0" encoding="UTF-8"?>
<svg width="302px" height="220px" viewBox="0 0 302 220" version="1.1" xmlns="http://www.w3.org/2000/svg" xmlns:xlink="http://www.w3.org/1999/xlink">
    <title>image4</title>
    <g id="Milestone-1---360x640dp-Android-Mobile" stroke="none" stroke-width="1" fill="none" fill-rule="evenodd">
        <g id="HIW---4th-state" transform="translate(-25.000000, -147.000000)" fill="#FFFFFF">
            <g id="Group" transform="translate(23.000000, 144.000000)">
                <g id="visibility" transform="translate(2.000000, 1.999463)">
                    <path d="M150.556,1.15540202 C82.1214543,1.15540202 23.2677454,46.5629775 0,111.012439 C23.2677454,175.461901 82.1214543,220.869477 150.556,220.869477 C218.990545,220.869477 277.844254,175.461901 301.111999,111.012439 C277.844254,46.5629775 218.990545,1.15540202 150.556,1.15540202 L150.556,1.15540202 Z M150.556,184.250464 C112.232654,184.250464 82.1214543,152.025733 82.1214543,111.012439 C82.1214543,69.9991455 112.232654,37.7744145 150.556,37.7744145 C188.879345,37.7744145 218.990545,69.9991455 218.990545,111.012439 C218.990545,152.025733 188.879345,184.250464 150.556,184.250464 L150.556,184.250464 Z M150.556,67.0696245 C127.288254,67.0696245 109.495272,86.111511 109.495272,111.012439 C109.495272,135.913368 127.288254,154.955254 150.556,154.955254 C173.823745,154.955254 191.616727,135.913368 191.616727,111.012439 C191.616727,86.111511 173.823745,67.0696245 150.556,67.0696245 L150.556,67.0696245 Z" id="Shape"></path>
                </g>
            </g>
        </g>
    </g>
</svg>