<?xml version="1.0" encoding="UTF-8"?>
<svg width="277px" height="174px" viewBox="0 0 277 174" version="1.1" xmlns="http://www.w3.org/2000/svg" xmlns:xlink="http://www.w3.org/1999/xlink">
    <title>image1</title>
    <g id="Milestone-1---360x640dp-Android-Mobile" stroke="none" stroke-width="1" fill="none" fill-rule="evenodd">
        <g id="HIW---1st-state" transform="translate(-41.000000, -171.000000)">
            <g id="Group" transform="translate(38.000000, 164.018229)">
                <g id="communication" transform="translate(2.007067, 2.000000)">
                    <g id="user-chat-1-copy" transform="translate(93.328622, 0.343845)" fill="#EFEEF3">
                        <g id="Group" transform="translate(0.000000, -0.000000)">
                            <g id="Solid" transform="translate(0.000000, 2.955842)">
                                <path d="M113.861116,111.372274 C112.666107,111.372274 111.455375,111.099551 110.346847,110.554104 C107.681663,109.23724 105.999216,106.533382 105.999216,103.580177 L105.999216,87.9959809 L98.1373161,87.9959809 L98.1373161,72.4117852 L113.861116,72.4117852 C118.200885,72.4117852 121.723016,75.902645 121.723016,80.203883 L121.723016,87.9959809 L140.591576,73.9702047 C141.951685,72.957232 143.610546,72.4117852 145.308716,72.4117852 L168.894416,72.4117852 L168.894416,17.8671002 L90.275416,17.8671002 L90.275416,41.2433938 L74.5516159,41.2433938 L74.5516159,17.8671002 C74.5516159,9.26462418 81.6037403,2.28290451 90.275416,2.28290451 L168.894416,2.28290451 C177.566092,2.28290451 184.618217,9.26462418 184.618217,17.8671002 L184.618217,72.4117852 C184.618217,81.0064691 177.566092,87.9959809 168.894416,87.9959809 L147.926729,87.9959809 L118.578256,109.813855 C117.1867,110.842412 115.527839,111.372274 113.861116,111.372274 Z" id="Shape"></path>
                                <g id="Group" transform="translate(2.170127, 39.633427)">
                                    <path d="M62.8952004,62.3367828 C80.2385519,62.3367828 94.3428005,48.3577593 94.3428005,31.1683914 C94.3428005,13.9790235 80.2385519,0 62.8952004,0 C45.5518489,0 31.4476002,13.9790235 31.4476002,31.1683914 C31.4476002,48.3577593 45.5518489,62.3367828 62.8952004,62.3367828 Z" id="Shape"></path>
                                    <path d="M62.8952004,70.1288807 C25.8656512,70.1288807 0,89.3519861 0,116.881468 L0,124.673566 L125.790401,124.673566 L125.790401,116.881468 C125.790401,89.3519861 99.9247496,70.1288807 62.8952004,70.1288807 Z" id="Shape"></path>
                                </g>
                            </g>
                        </g>
                    </g>
                    <g id="user-chat-1" transform="translate(0.000000, 18.649194)" fill="#FFFFFF">
                        <g id="Group" transform="translate(0.000000, -0.000000)">
                            <g id="Solid" transform="translate(0.000000, 2.793667)">
                                <path d="M38.3570674,106.056151 C37.2276241,106.056151 36.0833198,105.798391 35.0356126,105.282871 C32.5166569,104.038258 30.9265197,101.48275 30.9265197,98.6915761 L30.9265197,83.9624255 L23.495972,83.9624255 L23.495972,69.2332749 L38.3570674,69.2332749 C42.4587297,69.2332749 45.7876151,72.5326046 45.7876151,76.5978502 L45.7876151,83.9624255 L63.6209296,70.70619 C64.9064144,69.7487952 66.47426,69.2332749 68.0792583,69.2332749 L90.3709014,69.2332749 L90.3709014,17.6812478 L16.0654242,17.6812478 L16.0654242,39.7749737 L1.20432879,39.7749737 L1.20432879,17.6812478 C1.20432879,9.55075663 7.8695301,2.95209716 16.0654242,2.95209716 L90.3709014,2.95209716 C98.5667956,2.95209716 105.231997,9.55075663 105.231997,17.6812478 L105.231997,69.2332749 C105.231997,77.3564015 98.5667956,83.9624255 90.3709014,83.9624255 L70.5536307,83.9624255 L42.815396,104.583236 C41.5001891,105.55536 39.9323435,106.056151 38.3570674,106.056151 Z" id="Shape" transform="translate(53.218163, 54.504124) scale(-1, 1) translate(-53.218163, -54.504124) "></path>
                                <g id="Group" transform="translate(55.933410, 39.616543)">
                                    <path d="M59.4443818,58.9166024 C75.83617,58.9166024 89.1665726,45.7045543 89.1665726,29.4583012 C89.1665726,13.2120481 75.83617,0 59.4443818,0 C43.0525935,0 29.7221909,13.2120481 29.7221909,29.4583012 C29.7221909,45.7045543 43.0525935,58.9166024 59.4443818,58.9166024 Z" id="Shape"></path>
                                    <path d="M59.4443818,66.2811777 C24.446502,66.2811777 0,84.449585 0,110.46863 L0,117.833205 L118.888764,117.833205 L118.888764,110.46863 C118.888764,84.449585 94.4422615,66.2811777 59.4443818,66.2811777 Z" id="Shape"></path>
                                </g>
                            </g>
                        </g>
                    </g>
                </g>
            </g>
        </g>
    </g>
</svg>