<?xml version="1.0" encoding="UTF-8"?>
<svg width="20px" height="20px" viewBox="0 0 20 20" version="1.1" xmlns="http://www.w3.org/2000/svg" xmlns:xlink="http://www.w3.org/1999/xlink">
    <title>menu_settings</title>
    <g id="Milestone-2---360x640dp-Android-Mobile" stroke="none" stroke-width="1" fill="none" fill-rule="evenodd">
        <g id="Side-menu---Reader-(testing-phrase)" transform="translate(-18.000000, -367.000000)" fill="#FFFFFF">
            <g id="menu-item-set-3" transform="translate(15.358186, 365.000000)">
                <g id="notification-settings" transform="translate(1.015981, 0.000000)">
                    <g id="Group" transform="translate(0.036967, 0.903606)">
                        <g id="settings" transform="translate(2.000000, 2.000000)">
                            <path d="M16.6434783,10.5217391 C16.6434783,10.2347826 16.7391304,9.94782609 16.7391304,9.56521739 C16.7391304,9.1826087 16.7391304,8.89565217 16.6434783,8.60869565 L18.6521739,6.9826087 C18.8434783,6.79130435 18.8434783,6.6 18.7478261,6.40869565 L16.8347826,3.06086957 C16.7391304,2.96521739 16.5478261,2.86956522 16.2608696,2.96521739 L13.8695652,3.92173913 C13.3913043,3.53913043 12.8173913,3.25217391 12.2434783,2.96521739 L11.8608696,0.47826087 C11.9565217,0.191304348 11.6695652,0 11.4782609,0 L7.65217391,0 C7.46086957,0 7.17391304,0.191304348 7.17391304,0.382608696 L6.79130435,2.96521739 C6.2173913,3.15652174 5.73913043,3.53913043 5.16521739,3.92173913 L2.86956522,2.96521739 C2.5826087,2.86956522 2.39130435,2.96521739 2.2,3.15652174 L0.286956522,6.50434783 C0.191304348,6.6 0.286956522,6.88695652 0.47826087,7.07826087 L2.48695652,8.60869565 C2.48695652,8.89565217 2.39130435,9.1826087 2.39130435,9.56521739 C2.39130435,9.94782609 2.39130435,10.2347826 2.48695652,10.5217391 L0.47826087,12.1478261 C0.286956522,12.3391304 0.286956522,12.5304348 0.382608696,12.7217391 L2.29565217,16.0695652 C2.39130435,16.1652174 2.5826087,16.2608696 2.86956522,16.1652174 L5.26086957,15.2086957 C5.73913043,15.5913043 6.31304348,15.8782609 6.88695652,16.1652174 L7.26956522,18.6521739 C7.26956522,18.8434783 7.46086957,19.0347826 7.74782609,19.0347826 L11.573913,19.0347826 C11.7652174,19.0347826 12.0521739,18.8434783 12.0521739,18.6521739 L12.4347826,16.1652174 C13.0086957,15.8782609 13.5826087,15.5913043 14.0608696,15.2086957 L16.4521739,16.1652174 C16.6434783,16.2608696 16.9304348,16.1652174 17.026087,15.973913 L18.9391304,12.626087 C19.0347826,12.4347826 19.0347826,12.1478261 18.8434783,12.0521739 L16.6434783,10.5217391 L16.6434783,10.5217391 Z M9.56521739,12.9130435 C7.74782609,12.9130435 6.2173913,11.3826087 6.2173913,9.56521739 C6.2173913,7.74782609 7.74782609,6.2173913 9.56521739,6.2173913 C11.3826087,6.2173913 12.9130435,7.74782609 12.9130435,9.56521739 C12.9130435,11.3826087 11.3826087,12.9130435 9.56521739,12.9130435 L9.56521739,12.9130435 Z" id="Shape"></path>
                        </g>
                    </g>
                </g>
            </g>
        </g>
    </g>
</svg>