<?xml version="1.0" encoding="UTF-8"?>
<svg width="21px" height="21px" viewBox="0 0 21 21" version="1.1" xmlns="http://www.w3.org/2000/svg" xmlns:xlink="http://www.w3.org/1999/xlink">
    <title>menu_profile</title>
    <g id="Milestone-2---360x640dp-Android-Mobile" stroke="none" stroke-width="1" fill="none" fill-rule="evenodd">
        <g id="Side-menu---Reader-(testing-phrase)" transform="translate(-17.000000, -58.000000)" fill="#FFFFFF">
            <g id="menu-item-set-1" transform="translate(14.941057, 56.000000)">
                <g id="profile" transform="translate(0.040094, 0.000000)">
                    <g id="contacts" transform="translate(0.935547, 0.820125)">
                        <path d="M2,12 C2,17.522868 6.4772208,22 12.0001984,22 C17.523176,22 22,17.522868 22,12 C22,6.47713196 17.523176,2 12.0001984,2 C6.4772208,2 2,6.47713196 2,12 L2,12 L2,12 Z M6.2556824,19.1137049 C6.8059552,18.7925202 9.0626304,18.3538193 9.5910668,18.0211212 C10.1758808,17.6530888 9.9880892,15.6390345 9.9880892,15.6390345 L9.8580896,15.4952782 C9.7106172,15.3322006 9.533364,15.0304577 9.4630172,14.8237668 L9.2,14.0509766 L8.6,12.4000001 C8.6,12.4000001 8.2,11.7050024 8.2,11.2 C8.2,10.6949976 8.4,10.4 8.4,10.4 C8.4,10.4 8.2,8.97665556 8.2,8 C8.2,6.2 10.6,5 12,5 C13.4,5 15.8,6.2 15.8,8 C15.8,8.97625852 15.6,10.4 15.6,10.4 C15.6,10.4 15.8,10.6949976 15.8,11.2 C15.8,11.7050024 15.4,12.4 15.4,12.4 L14.8,14.0509766 L14.5309748,14.8237668 C14.4586396,15.0315546 14.2778132,15.3341103 14.1309748,15.495278 L14,15.6390343 C14,15.6390343 14.017866,17.6530888 14.6030768,18.0211212 C15.1243672,18.3494521 17.3306204,18.7814038 17.9162284,19.1010005 C17.9166252,19.1399079 15.3969232,21.2 12,21.2 C8.6022828,21.2 6.2902232,19.1478482 6.2556824,19.1137049 L6.2556824,19.1137049 L6.2556824,19.1137049 Z"></path>
                    </g>
                </g>
            </g>
        </g>
    </g>
</svg>