<?xml version="1.0" encoding="UTF-8"?>
<svg width="21px" height="13px" viewBox="0 0 21 13" version="1.1" xmlns="http://www.w3.org/2000/svg" xmlns:xlink="http://www.w3.org/1999/xlink">
    <title>menu_support</title>
    <g id="Milestone-2---360x640dp-Android-Mobile" stroke="none" stroke-width="1" fill="none" fill-rule="evenodd">
        <g id="Side-menu---Reader-(testing-phrase)" transform="translate(-18.000000, -410.000000)" fill="#FFFFFF">
            <g id="menu-item-set-3" transform="translate(15.358186, 365.000000)">
                <g id="customer-support" transform="translate(1.047942, 40.607262)">
                    <g id="Group" transform="translate(0.220826, 3.547106)">
                        <g id="group" transform="translate(2.000000, 1.000000)">
                            <path d="M13.6363636,5.45454545 C15.1818182,5.45454545 16.3636364,4.27272727 16.3636364,2.72727273 C16.3636364,1.18181818 15.1818182,0 13.6363636,0 C12.0909091,0 10.9090909,1.18181818 10.9090909,2.72727273 C10.9090909,4.27272727 12.0909091,5.45454545 13.6363636,5.45454545 L13.6363636,5.45454545 Z M6.36363636,5.45454545 C7.90909091,5.45454545 9.09090909,4.27272727 9.09090909,2.72727273 C9.09090909,1.18181818 7.90909091,0 6.36363636,0 C4.81818182,0 3.63636364,1.18181818 3.63636364,2.72727273 C3.63636364,4.27272727 4.81818182,5.45454545 6.36363636,5.45454545 L6.36363636,5.45454545 Z M6.36363636,7.27272727 C4.27272727,7.27272727 0,8.36363636 0,10.4545455 L0,12.7272727 L12.7272727,12.7272727 L12.7272727,10.4545455 C12.7272727,8.36363636 8.45454545,7.27272727 6.36363636,7.27272727 L6.36363636,7.27272727 Z M13.6363636,7.27272727 C13.3636364,7.27272727 13.0909091,7.27272727 12.7272727,7.36363636 C13.8181818,8.09090909 14.5454545,9.18181818 14.5454545,10.4545455 L14.5454545,12.7272727 L20,12.7272727 L20,10.4545455 C20,8.36363636 15.7272727,7.27272727 13.6363636,7.27272727 L13.6363636,7.27272727 Z" id="Shape"></path>
                        </g>
                    </g>
                </g>
            </g>
        </g>
    </g>
</svg>