<?xml version="1.0" encoding="UTF-8"?>
<svg width="20px" height="14px" viewBox="0 0 20 14" version="1.1" xmlns="http://www.w3.org/2000/svg" xmlns:xlink="http://www.w3.org/1999/xlink">
    <title>menu_get_tested</title>
    <g id="Milestone-2---360x640dp-Android-Mobile" stroke="none" stroke-width="1" fill="none" fill-rule="evenodd">
        <g id="Side-menu---Reader-(testing-phrase)" transform="translate(-18.000000, -129.000000)" fill="#FFFFFF">
            <g id="menu-item-set-1" transform="translate(14.941057, 56.000000)">
                <g id="get-tested" transform="translate(1.040094, 68.432743)">
                    <g id="Group" transform="translate(0.208406, 2.764588)">
                        <g id="visibility-small" transform="translate(2.000000, 2.000000)">
                            <path d="M9.74472489,0.0698784722 C5.31530449,0.0698784722 1.50600294,2.81611912 0,6.71400908 C1.50600294,10.611899 5.31530449,13.3581397 9.74472489,13.3581397 C14.1741453,13.3581397 17.9834468,10.611899 19.4894498,6.71400908 C17.9834468,2.81611912 14.1741453,0.0698784722 9.74472489,0.0698784722 L9.74472489,0.0698784722 Z M9.74472489,11.1434295 C7.26424947,11.1434295 5.31530449,9.19448451 5.31530449,6.71400908 C5.31530449,4.23353365 7.26424947,2.28458868 9.74472489,2.28458868 C12.2252003,2.28458868 14.1741453,4.23353365 14.1741453,6.71400908 C14.1741453,9.19448451 12.2252003,11.1434295 9.74472489,11.1434295 L9.74472489,11.1434295 Z M9.74472489,4.05635684 C8.23872196,4.05635684 7.08707265,5.20800614 7.08707265,6.71400908 C7.08707265,8.22001202 8.23872196,9.37166132 9.74472489,9.37166132 C11.2507278,9.37166132 12.4023771,8.22001202 12.4023771,6.71400908 C12.4023771,5.20800614 11.2507278,4.05635684 9.74472489,4.05635684 L9.74472489,4.05635684 Z" id="Shape"></path>
                        </g>
                    </g>
                </g>
            </g>
        </g>
    </g>
</svg>