<?xml version="1.0" encoding="UTF-8"?>
<svg width="21px" height="19px" viewBox="0 0 21 19" version="1.1" xmlns="http://www.w3.org/2000/svg" xmlns:xlink="http://www.w3.org/1999/xlink">
    <title>ic_term_agreement</title>
    <g id="Milestone-2---360x640dp-Android-Mobile" stroke="none" stroke-width="1" fill="none" fill-rule="evenodd">
        <g id="Side-menu---Reader-(testing-phrase)" transform="translate(-18.000000, -443.000000)" fill="#FFFFFF">
            <g id="menu-item-set-3" transform="translate(15.358186, 365.000000)">
                <g id="terms-of-agreement" transform="translate(0.000000, 75.214524)">
                    <g id="Group" transform="translate(0.721892, 0.319656)">
                        <g id="translate" transform="translate(2.000000, 3.000000)">
                            <path d="M0,14.2 L0,18 L3.8,18 L14.8,6.9 L11,3.1 L0,14.2 L0,14.2 Z M17.7,4 C18.1,3.6 18.1,3 17.7,2.6 L15.4,0.3 C15,-0.1 14.4,-0.1 14,0.3 L12.2,2.1 L16,5.9 L17.7,4 L17.7,4 Z M9,16 L7,18 L20,18 L20,16 L9,16 L9,16 Z" id="Shape"></path>
                        </g>
                    </g>
                </g>
            </g>
        </g>
    </g>
</svg>